<svg xmlns="http://www.w3.org/2000/svg" xmlns:xlink="http://www.w3.org/1999/xlink" viewBox="0 0 1920 993.1"><defs><style>.cls-1{fill:#fff;stroke:#231815;stroke-linecap:round;stroke-linejoin:round;stroke-width:4px;}</style></defs><g id="p-bg"><image width="8000" height="4138" transform="scale(0.24)" xlink:href="hobby1.png"/></g><g id="p-shadow"><g id="hs"><image width="1462" height="1977" transform="translate(516.5 457.2) scale(0.23 0.23)" xlink:href="hobby2.png"/></g><g id="cs"><image width="1462" height="1978" transform="translate(283 174.8) scale(0.25 0.24)" xlink:href="hobby3.png"/></g><g id="vs"><image width="1461" height="1977" transform="translate(796.2 153.5) scale(0.22 0.23)" xlink:href="hobby4.png"/></g><g id="gs"><image width="1462" height="1978" transform="translate(1039.8 439.1) scale(0.24 0.24)" xlink:href="hobby5.png"/></g><g id="bs"><image width="1462" height="1978" transform="translate(1303.8 186) scale(0.22 0.25)" xlink:href="hobby6.png"/></g></g><g id="p-game"><g id="gg"><rect class="cls-1" x="1065.2" y="468" width="268.8" height="388.16"/><image width="983" height="1019" transform="translate(1081.7 555.5) scale(0.24)" xlink:href="hobby7.png"/><image width="234" height="206" transform="translate(1170.7 507.8) scale(0.24)" xlink:href="hobby8.png"/></g><image id="gpin" width="389" height="376" transform="translate(1142.2 430.9) scale(0.24)" xlink:href="hobby9.png"/></g><g id="p-book"><g id="bg"><rect class="cls-1" x="1303.8" y="222" width="278.1" height="401.57"/><image width="1016" height="1053" transform="translate(1321 312.7) scale(0.24)" xlink:href="hobby10.png"/><image width="206" height="213" transform="translate(1417.4 255.8) scale(0.24)" xlink:href="hobby11.png"/></g><image id="bpin" width="409" height="371" transform="translate(1371.6 192) scale(0.24)" xlink:href="hobby12.png"/></g><g id="p-hobby"><g id="hg"><rect class="cls-1" x="572.2" y="472.8" width="266.4" height="384.59"/><image width="1199" height="1116" transform="translate(560.6 559.6) scale(0.24)" xlink:href="hobby13.png"/><image width="485" height="185" transform="translate(647 509) scale(0.24)" xlink:href="hobby14.png"/></g><image id="hpin" width="402" height="361" transform="translate(647 443.2) scale(0.24)" xlink:href="hobby15.png"/></g><g id="p-camp"><g id="cg"><rect class="cls-1" x="336.8" y="208.7" width="268.3" height="387.44"/><image width="981" height="1017" transform="translate(353.3 296.1) scale(0.24)" xlink:href="hobby16.png"/><image width="492" height="205" transform="translate(411.8 244.8) scale(0.24)" xlink:href="hobby17.png"/></g><image id="cpin" width="353" height="349" transform="translate(414 174.9) scale(0.24)" xlink:href="hobby18.png"/></g><g id="p-video"><g id="vg"><rect class="cls-1" x="820.7" y="174.8" width="265.5" height="383.39"/><image width="1009" height="1145" transform="translate(836.9 261.1) scale(0.24)" xlink:href="hobby19.png"/><image width="430" height="203" transform="translate(901.9 207.4) scale(0.24)" xlink:href="hobby20.png"/></g><image id="vpin" width="402" height="374" transform="translate(894.5 141.1) scale(0.24)" xlink:href="hobby21.png"/></g></svg>