<svg xmlns="http://www.w3.org/2000/svg" xmlns:xlink="http://www.w3.org/1999/xlink" viewBox="0 0 1256.4 1052.2"><g id="bg-room"><image id="roomgroud" width="5235" height="4384" transform="scale(0.24)" xlink:href="room1.png"/></g><g id="enviroment-group"><image id="trashbox" width="613" height="583" transform="translate(361.9 355.2) scale(0.24)" xlink:href="room2.png"/><image id="plants" width="321" height="517" transform="translate(384.5 776.6) scale(0.24)" xlink:href="room3.png"/><image id="pictureframe" width="265" height="582" transform="translate(368.9 202.6) scale(0.24)" xlink:href="room4.png"/></g><g id="bg-group"><image id="table" width="974" height="776" transform="translate(189.6 654) scale(0.24)" xlink:href="room5.png"/><image id="door" width="2715" height="2027" transform="translate(578.6 375.6) scale(0.24)" xlink:href="room6.png"/><image id="lamp" width="305" height="753" transform="translate(443.3 746.2) scale(0.24)" xlink:href="room7.png"/><image id="bed" width="1389" height="982" transform="translate(505.4 784.8) scale(0.24)" xlink:href="room8.png"/></g><g id="hobby-group"><image id="polaroid" width="451" height="635" transform="translate(797.3 210.7) scale(0.24)" xlink:href="room9.png"/><image id="sofa" width="1219" height="1045" transform="translate(457.1 483.9) scale(0.24)" xlink:href="room10.png"/><image id="phone" width="230" height="125" transform="translate(616.6 833.5) scale(0.24)" xlink:href="room11.png"/><image id="book" width="703" height="706" transform="translate(431.5 162.7) scale(0.24)" xlink:href="room12.png"/></g><g id="newnormal-group"><image id="kmask" width="229" height="402" transform="translate(1029.1 400.6) scale(0.24)" xlink:href="room13.png"/><image id="clock" width="223" height="249" transform="translate(701.3 145) scale(0.24)" xlink:href="room14.png"/><image id="exercise" width="803" height="597" transform="translate(727.4 425.5) scale(0.24)" xlink:href="room15.png"/><image id="desk" width="897" height="874" transform="translate(556.1 241.7) scale(0.24)" xlink:href="room16.png"/><image id="cleaner" width="269" height="508" transform="translate(1021.9 501.4) scale(0.24)" xlink:href="room17.png"/></g><g id="food-group"><image id="refrigerator" width="538" height="1002" transform="translate(245.8 313.7) scale(0.24)" xlink:href="room18.png"/><image id="kitchen" width="1124" height="1869" transform="translate(27.4 302.9) scale(0.24)" xlink:href="room19.png"/></g><g id="fashion-group"><image id="hanger" width="1021" height="1077" transform="translate(774.2 589.4) scale(0.24)" xlink:href="room20.png"/><image id="mirror" width="354" height="842" transform="translate(907.7 360.5) scale(0.24)" xlink:href="room21.png"/></g></svg>